<?xml version="1.0" encoding="UTF-8"?>
<svg version="1.1" viewBox="0 0 32 32" xmlns="http://www.w3.org/2000/svg" xmlns:cc="http://creativecommons.org/ns#" xmlns:dc="http://purl.org/dc/elements/1.1/" xmlns:rdf="http://www.w3.org/1999/02/22-rdf-syntax-ns#">
 <defs>
  <marker id="marker3469" overflow="visible" orient="auto">
   <path transform="scale(.3) rotate(180) translate(-2.3)" d="m8.7186 4.0337-10.926-4.0177 10.926-4.0177c-1.7455 2.3721-1.7354 5.6175-6e-7 8.0354z" fill-rule="evenodd" stroke="#000" stroke-linejoin="round" stroke-width=".625"/>
  </marker>
  <marker id="marker3429" overflow="visible" orient="auto">
   <path transform="scale(.3) rotate(180) translate(-2.3)" d="m8.7186 4.0337-10.926-4.0177 10.926-4.0177c-1.7455 2.3721-1.7354 5.6175-6e-7 8.0354z" fill-rule="evenodd" stroke="#000" stroke-linejoin="round" stroke-width=".625"/>
  </marker>
  <marker id="Arrow2Send" overflow="visible" orient="auto">
   <path transform="scale(.3) rotate(180) translate(-2.3)" d="m8.7186 4.0337-10.926-4.0177 10.926-4.0177c-1.7455 2.3721-1.7354 5.6175-6e-7 8.0354z" fill-rule="evenodd" stroke="#000" stroke-linejoin="round" stroke-width=".625"/>
  </marker>
 </defs>
 <metadata>
  <rdf:RDF>
   <cc:Work rdf:about="">
    <dc:format>image/svg+xml</dc:format>
    <dc:type rdf:resource="http://purl.org/dc/dcmitype/StillImage"/>
    <dc:title/>
   </cc:Work>
  </rdf:RDF>
 </metadata>
 <g fill="none" stroke="#000" stroke-width="2.1354">
  <path d="m15 5-10 15" marker-end="url(#marker3469)"/>
  <path d="m15 5 5 10-5 10" marker-end="url(#marker3429)" stroke-linecap="round"/>
  <path d="m20 15 5 10" marker-end="url(#Arrow2Send)" stroke-linejoin="bevel" style="paint-order:stroke fill markers"/>
 </g>
</svg>
